<svg width="98" height="37" viewBox="0 0 98 37" fill="none" xmlns="http://www.w3.org/2000/svg">
<g clip-path="url(#clip0_192_149)">
<path d="M0 30L0.064 29.68H0.16C0.928 29.68 1.54667 29.4453 2.016 28.976C2.48533 28.5067 2.72 27.888 2.72 27.12V8.88C2.72 8.112 2.48533 7.49333 2.016 7.024C1.54667 6.55467 0.928 6.32 0.16 6.32L0.128 6H17.248L18.208 12.464H17.92C17.28 8.432 14.7413 6.416 10.304 6.416H7.648V16.048H10.144C11.2107 16.048 12.064 15.7173 12.704 15.056C13.344 14.3733 13.664 13.4987 13.664 12.432H13.984V20.432H13.664C13.664 19.28 13.312 18.3307 12.608 17.584C11.904 16.8373 10.976 16.464 9.824 16.464H7.648V27.376C7.648 28.08 7.89333 28.6453 8.384 29.072C8.87467 29.4773 9.48267 29.68 10.208 29.68L10.24 30H0ZM17.8483 30V29.68H17.8803C18.6483 29.68 19.2669 29.4453 19.7363 28.976C20.2056 28.5067 20.4403 27.888 20.4403 27.12V16.624C20.4403 15.8133 20.2696 15.184 19.9283 14.736C19.6083 14.288 18.9149 14.064 17.8483 14.064V13.744H21.0163C22.1469 13.744 23.0003 13.6373 23.5763 13.424C24.1523 13.1893 24.5576 12.8907 24.7923 12.528H24.9523L24.9843 17.776C25.2616 17.136 25.6136 16.464 26.0403 15.76C26.4883 15.056 27.0429 14.4693 27.7043 14C28.3869 13.5093 29.1976 13.264 30.1363 13.264C30.4563 13.264 30.7976 13.296 31.1603 13.36C31.5229 13.424 31.9069 13.5413 32.3123 13.712L31.0643 17.456C30.2963 17.0293 29.6243 16.7307 29.0483 16.56C28.4936 16.3893 28.0029 16.304 27.5763 16.304C26.8509 16.304 26.3069 16.528 25.9443 16.976C25.6029 17.424 25.3043 17.9573 25.0483 18.576V27.12C25.0483 27.888 25.2829 28.5067 25.7523 28.976C26.2216 29.4453 26.8403 29.68 27.6083 29.68H27.6403V30H17.8483ZM39.6393 30.384C38.1673 30.384 36.8553 30.0213 35.7033 29.296C34.5726 28.5707 33.6873 27.568 33.0473 26.288C32.4073 24.9867 32.0872 23.504 32.0872 21.84C32.0872 20.1333 32.4392 18.64 33.1432 17.36C33.8473 16.08 34.8073 15.088 36.0233 14.384C37.2606 13.6587 38.6579 13.296 40.2153 13.296C41.5166 13.296 42.6686 13.552 43.6713 14.064C44.6953 14.576 45.5059 15.3013 46.1033 16.24C46.7219 17.1573 47.0739 18.224 47.1593 19.44L47.1912 19.92H36.4393V20.08C36.4393 22.3413 36.9406 24.1547 37.9433 25.52C38.9459 26.864 40.2899 27.536 41.9753 27.536C42.9993 27.536 43.9699 27.2907 44.8873 26.8C45.8259 26.288 46.5833 25.6053 47.1593 24.752L47.4473 24.848C47.0846 25.936 46.5193 26.896 45.7513 27.728C44.9833 28.56 44.0766 29.2107 43.0313 29.68C41.9859 30.1493 40.8553 30.384 39.6393 30.384ZM36.4713 19.44H42.9673C42.9673 17.7547 42.6899 16.3893 42.1353 15.344C41.6019 14.2987 40.8446 13.776 39.8633 13.776C38.9246 13.776 38.1459 14.288 37.5273 15.312C36.9086 16.336 36.5566 17.712 36.4713 19.44ZM52.7183 30.448C51.4169 30.448 50.3716 30.096 49.5823 29.392C48.7929 28.688 48.3983 27.76 48.3983 26.608C48.3983 26.1173 48.4836 25.6587 48.6543 25.232C48.8249 24.784 49.1449 24.3467 49.6143 23.92C50.1049 23.4933 50.7769 23.056 51.6302 22.608C52.4836 22.1387 53.6143 21.648 55.0223 21.136L57.9983 20.048V17.648C57.9983 16.432 57.8063 15.472 57.4223 14.768C57.0383 14.0427 56.5049 13.68 55.8223 13.68C55.0116 13.7013 54.3183 14.2347 53.7423 15.28C53.1876 16.3253 52.8143 17.776 52.6223 19.632L49.1663 17.648C49.5289 16.7733 50.0836 16.0053 50.8303 15.344C51.5769 14.6827 52.4303 14.1707 53.3903 13.808C54.3716 13.4453 55.3956 13.264 56.4623 13.264C58.2756 13.264 59.7476 13.776 60.8783 14.8C62.0303 15.8027 62.6063 17.1787 62.6063 18.928V26.64C62.6063 27.8773 63.0223 28.496 63.8542 28.496C64.3449 28.496 64.8249 28.2293 65.2943 27.696L65.5503 27.92C64.9956 28.6667 64.3236 29.2747 63.5343 29.744C62.7449 30.2133 61.9769 30.448 61.2303 30.448C60.4196 30.448 59.7156 30.1707 59.1183 29.616C58.5423 29.0613 58.1796 28.3253 58.0303 27.408C56.9849 28.4747 56.0676 29.2533 55.2783 29.744C54.5103 30.2133 53.6569 30.448 52.7183 30.448ZM55.1183 28.464C55.5876 28.464 56.0356 28.3467 56.4623 28.112C56.9103 27.8773 57.4116 27.4933 57.9663 26.96L57.9983 20.464L56.7183 20.944C55.6303 21.3493 54.7983 21.7653 54.2223 22.192C53.6463 22.5973 53.2409 23.056 53.0063 23.568C52.7929 24.08 52.6863 24.6667 52.6863 25.328C52.6863 26.2453 52.9103 27.0027 53.3583 27.6C53.8276 28.176 54.4143 28.464 55.1183 28.464ZM65.0312 30V29.68H65.0633C65.8313 29.68 66.4499 29.4453 66.9193 28.976C67.3886 28.5067 67.6233 27.888 67.6233 27.12V8.88C67.6233 8.112 67.3779 7.49333 66.8873 7.024C66.4179 6.55467 65.7993 6.32 65.0312 6.32V6H68.2953C69.3833 6 70.2153 5.88266 70.7913 5.648C71.3246 5.41333 71.6979 5.12533 71.9113 4.784H72.2313V21.616L77.6713 17.04C78.5459 16.3147 79.0686 15.664 79.2393 15.088C79.3673 14.5547 79.2286 14.2453 78.8233 14.16L78.4073 14.064V13.744H83.1753V14.064L82.8553 14.128C82.3433 14.2133 81.8099 14.4267 81.2553 14.768C80.7219 15.1093 79.9433 15.7067 78.9193 16.56L76.7113 18.416L83.0793 28.208C83.4846 28.7413 83.8366 29.1253 84.1353 29.36C84.4339 29.5733 84.7646 29.68 85.1273 29.68V30H76.6793V29.68C77.2126 29.68 77.5646 29.6373 77.7353 29.552C77.9273 29.488 78.0233 29.3493 78.0233 29.136C78.0233 28.944 77.9486 28.6987 77.7993 28.4C77.7139 28.2293 77.6073 28.0373 77.4793 27.824C77.3726 27.5893 77.2339 27.3333 77.0633 27.056L73.4153 21.2L72.2313 22.224V27.12C72.2313 27.888 72.4659 28.5067 72.9353 28.976C73.4046 29.4453 74.0233 29.68 74.7913 29.68H74.8233V30H65.0312ZM90.778 30.448C90.2233 30.448 89.8073 30.4267 89.53 30.384C89.2527 30.3413 88.986 30.288 88.73 30.224C88.4953 30.16 88.1753 30.1067 87.77 30.064C87.3647 30.0213 86.746 30 85.914 30L85.146 23.984H85.562C85.9033 25.9893 86.5433 27.504 87.482 28.528C88.4207 29.5307 89.4447 30.032 90.554 30.032C91.642 30.032 92.4633 29.808 93.018 29.36C93.594 28.912 93.882 28.304 93.882 27.536C93.882 27.0453 93.754 26.6187 93.498 26.256C93.2633 25.872 92.8473 25.488 92.25 25.104C91.6527 24.6987 90.842 24.2187 89.818 23.664L88.89 23.152C87.7167 22.4907 86.842 21.7227 86.266 20.848C85.7113 19.952 85.434 18.992 85.434 17.968C85.434 16.5173 85.9567 15.376 87.002 14.544C88.0687 13.712 89.4873 13.296 91.258 13.296C91.706 13.296 92.0687 13.3173 92.346 13.36C92.6233 13.4027 92.89 13.456 93.146 13.52C93.402 13.584 93.722 13.6373 94.106 13.68C94.49 13.7227 95.002 13.744 95.642 13.744L96.09 18.896H95.706C95.578 17.8933 95.29 17.008 94.842 16.24C94.4153 15.4507 93.9033 14.8427 93.306 14.416C92.7087 13.968 92.1007 13.744 91.482 13.744C90.6713 13.744 90.0207 13.9573 89.53 14.384C89.0607 14.8107 88.826 15.408 88.826 16.176C88.826 16.752 89.0073 17.2853 89.37 17.776C89.754 18.2453 90.4793 18.7573 91.546 19.312L92.506 19.792C93.9993 20.56 95.0873 21.36 95.77 22.192C96.4527 23.024 96.794 24.0907 96.794 25.392C96.794 28.72 94.7887 30.4053 90.778 30.448Z" fill="black"/>
</g>
<defs>
<clipPath id="clip0_192_149">
<rect width="98" height="37" fill="white"/>
</clipPath>
</defs>
</svg>
