<svg width="512" height="512" viewBox="0 0 512 512" fill="none" xmlns="http://www.w3.org/2000/svg">
<rect width="512" height="512" rx="103" fill="#9A0909"/>
<path d="M170 373L170.624 369.88H171.56C179.048 369.88 185.08 367.592 189.656 363.016C194.232 358.44 196.52 352.408 196.52 344.92V167.08C196.52 159.592 194.232 153.56 189.656 148.984C185.08 144.408 179.048 142.12 171.56 142.12L171.248 139H338.168L347.528 202.024H344.72C338.48 162.712 313.728 143.056 270.464 143.056H244.568V236.968H268.904C279.304 236.968 287.624 233.744 293.864 227.296C300.104 220.64 303.224 212.112 303.224 201.712H306.344V279.712H303.224C303.224 268.48 299.792 259.224 292.928 251.944C286.064 244.664 277.016 241.024 265.784 241.024H244.568V347.416C244.568 354.28 246.96 359.792 251.744 363.952C256.528 367.904 262.456 369.88 269.528 369.88L269.84 373H170Z" fill="black"/>
</svg>
